<svg xmlns="http://www.w3.org/2000/svg" version="1.1" xmlns:xlink="http://www.w3.org/1999/xlink" width="512" height="512" x="0" y="0" viewBox="0 0 512 512" style="enable-background:new 0 0 512 512" xml:space="preserve" class=""><g><path d="M436.706 212.277a15.06 15.06 0 0 0-9.771-14.1l-75.294-28.235c-9.845-3.692-20.346 3.586-20.346 14.1v134.742l-60.235-22.792V100.227L512 191.394v195.765l-75.294-28.49V212.277zm-30.118 134.996-45.177-17.094V205.771l45.177 16.941v124.561zM240.941 100.227v195.765L0 387.159V191.394l240.941-91.167zM52.706 298.865c0 10.514 10.502 17.792 20.346 14.1l120.471-45.176a15.058 15.058 0 0 0 9.771-14.1v-75.294c0-10.514-10.502-17.792-20.346-14.1L62.477 209.472a15.058 15.058 0 0 0-9.771 14.1v75.293zm443.131 114.379L261.287 501.2a15.063 15.063 0 0 1-10.575 0L16.163 413.244 256 322.495l239.837 90.749zM240.941 9.841v60.268L0 161.276v-50.647a15.06 15.06 0 0 1 9.771-14.1l231.17-86.688zm30.118 0 231.17 86.688a15.058 15.058 0 0 1 9.771 14.1v50.647L271.059 70.109V9.841zM82.824 277.135v-43.129l90.353-33.882v43.129l-90.353 33.882z" fill="white" opacity="1" data-original="white" class=""></path></g></svg>