<svg width="29" height="30" viewBox="0 0 29 30" fill="none" xmlns="http://www.w3.org/2000/svg">
<path d="M28.4117 13.3901C28.3675 12.9825 27.9084 12.6759 27.5115 12.6759C26.2286 12.6759 25.0902 11.896 24.6127 10.689C24.1253 9.45308 24.4398 8.01194 25.3955 7.10381C25.6966 6.81875 25.7333 6.34142 25.4809 6.01007C24.8241 5.14647 24.078 4.36626 23.263 3.69015C22.9442 3.42528 22.4757 3.46215 22.199 3.77932C21.3646 4.73649 19.8656 5.09216 18.7073 4.59163C17.5023 4.06652 16.7417 2.80147 16.8164 1.4436C16.841 1.01682 16.5398 0.645964 16.1291 0.596425C15.0833 0.471011 14.0282 0.467374 12.9793 0.587897C12.5739 0.6343 12.2729 0.996372 12.2863 1.41777C12.3318 2.76234 11.5626 4.00507 10.3692 4.51137C9.22483 4.99559 7.73627 4.64255 6.90353 3.69379C6.62829 3.38126 6.16803 3.34288 5.84702 3.60211C5.00811 4.28399 4.24512 5.0647 3.58228 5.92128C3.32399 6.25426 3.36213 6.73685 3.66571 7.02292C4.64036 7.93707 4.95459 9.39062 4.44855 10.641C3.9654 11.8331 2.77037 12.601 1.40241 12.601C0.958497 12.5862 0.642574 12.8951 0.593532 13.3132C0.470505 14.4022 0.469173 15.5124 0.587599 16.6102C0.631797 17.0196 1.10441 17.3236 1.5057 17.3236C2.72508 17.2915 3.89505 18.0728 4.38656 19.3103C4.87564 20.5463 4.5608 21.9868 3.60347 22.8961C3.30401 23.1812 3.26575 23.6574 3.51858 23.9884C4.16871 24.8466 4.9156 25.6273 5.73295 26.3092C6.05384 26.5768 6.52052 26.5393 6.79867 26.2218C7.63637 25.2623 9.1351 24.9073 10.2887 25.4088C11.4972 25.9326 12.2574 27.1975 12.1832 28.5557C12.1588 28.9825 12.4608 29.3545 12.87 29.4029C13.4052 29.4678 13.9432 29.4999 14.4829 29.4999C14.9951 29.4999 15.5075 29.4709 16.0198 29.4118C16.4257 29.3654 16.7262 29.003 16.7125 28.5814C16.6657 27.2375 17.4365 25.9946 18.6284 25.4893C19.7805 25.002 21.2624 25.3587 22.0956 26.306C22.3723 26.618 22.8298 26.6558 23.1521 26.3976C23.9896 25.7175 24.7511 24.9371 25.4169 24.0783C25.6754 23.746 25.6387 23.2627 25.3334 22.9762C24.359 22.0626 24.0431 20.6085 24.5491 19.3593C25.0248 18.1833 26.1754 17.3937 27.4129 17.3937L27.5861 17.3985C27.9878 17.4322 28.357 17.1118 28.4056 16.6872C28.5292 15.5973 28.5306 14.4884 28.4117 13.3901ZM14.4997 23.3593C10.0421 23.3593 6.42862 19.6168 6.42862 15C6.42862 10.3833 10.0422 6.64078 14.4997 6.64078C18.9573 6.64078 22.5709 10.3833 22.5709 15C22.5709 16.5671 22.1537 18.0328 21.4292 19.2862L17.8951 15.6257C18.151 15.0009 18.2861 14.3236 18.286 13.6245C18.286 12.2556 17.7712 10.9687 16.8365 10.0009C15.9021 9.03307 14.6596 8.50006 13.3381 8.50006C12.8971 8.50006 12.4582 8.56075 12.0335 8.68053C11.8475 8.73308 11.6954 8.89185 11.6459 9.08486C11.5953 9.28227 11.6523 9.48456 11.8013 9.63895C11.8013 9.63895 13.546 11.46 14.1298 12.0645C14.191 12.1278 14.1908 12.2789 14.1823 12.3334L14.1768 12.3731C14.118 13.0378 14.0045 13.8357 13.9109 14.1423C13.8983 14.1553 13.8864 14.1662 13.8736 14.1795C13.8602 14.1934 13.8478 14.2068 13.8348 14.2206C13.5349 14.3203 12.7527 14.4392 12.1007 14.4996L12.1008 14.496L12.0715 14.5037C12.0663 14.5043 12.0566 14.505 12.0438 14.505C11.9733 14.505 11.8697 14.4846 11.7755 14.3871C11.1678 13.7578 9.49147 12.034 9.49147 12.034C9.34107 11.8787 9.1868 11.8461 9.084 11.8461C8.84436 11.8461 8.62979 12.0255 8.56222 12.2827C8.10075 14.0514 8.58995 15.9539 9.83924 17.248C10.7739 18.2159 12.0166 18.7489 13.3383 18.7489C14.0132 18.7489 14.6672 18.6091 15.2704 18.3441L18.8429 22.0442C17.5886 22.8755 16.0992 23.3593 14.4997 23.3593Z" fill="white"/>
</svg>
