<svg width="31" height="30" viewBox="0 0 31 30" fill="none" xmlns="http://www.w3.org/2000/svg">
<path fill-rule="evenodd" clip-rule="evenodd" d="M9.67871 12.2666C9.67871 15.4815 12.285 18.0878 15.5 18.0878C18.715 18.0878 21.3212 15.4815 21.3212 12.2666C21.3212 9.05162 18.715 6.44528 15.5 6.44528C12.285 6.44528 9.67871 9.05161 9.67871 12.2666ZM15.5 15.7441C13.5794 15.7441 12.0225 14.1871 12.0225 12.2666C12.0225 10.346 13.5794 8.78903 15.5 8.78903C17.4205 8.78903 18.9775 10.346 18.9775 12.2666C18.9775 14.1871 17.4205 15.7441 15.5 15.7441Z" fill="white"/>
<path fill-rule="evenodd" clip-rule="evenodd" d="M15.4991 15.744C10.1175 15.744 5.75488 20.1067 5.75488 25.4882H8.09863C8.09863 21.4011 11.4119 18.0878 15.4991 18.0878C19.5862 18.0878 22.8995 21.4011 22.8995 25.4882H25.2433C25.2433 20.1067 20.8806 15.744 15.4991 15.744Z" fill="white"/>
<path fill-rule="evenodd" clip-rule="evenodd" d="M26.5156 10.3125V-2.86102e-06H24.1719V10.3125H26.5156Z" fill="white"/>
<path fill-rule="evenodd" clip-rule="evenodd" d="M20.1875 6.32811H30.5V3.98436H20.1875V6.32811Z" fill="white"/>
<path d="M27.9378 12.6562C28.0806 13.4161 28.1562 14.1993 28.1562 15C28.1562 21.9787 22.4787 27.6562 15.5 27.6562C8.5213 27.6562 2.84375 21.9787 2.84375 15C2.84375 8.0213 8.5213 2.34375 15.5 2.34375C16.3007 2.34375 17.0839 2.41934 17.8437 2.56225V0.181879C17.0754 0.0620556 16.2925 3.8147e-06 15.5 3.8147e-06C11.4933 3.8147e-06 7.72654 1.5603 4.89335 4.39336C2.06029 7.22654 0.5 10.9934 0.5 15C0.5 19.0066 2.06029 22.7734 4.89335 25.6066C7.72654 28.4397 11.4933 30 15.5 30C19.5066 30 23.2735 28.4397 26.1066 25.6066C28.9397 22.7734 30.5 19.0066 30.5 15C30.5 14.2075 30.438 13.4246 30.3181 12.6562H27.9378Z" fill="white"/>
</svg>
