<svg width="20" height="21" viewBox="0 0 20 21" fill="none" xmlns="http://www.w3.org/2000/svg">
<path d="M17.071 3.34561C16.1431 2.41409 15.0405 1.67471 13.8265 1.16979C12.6125 0.664868 11.3108 0.404317 9.99596 0.40305C8.68112 0.401784 7.37894 0.659826 6.16394 1.16241C4.94895 1.66499 3.84499 2.40225 2.91526 3.33198C1.98553 4.26171 1.24827 5.36567 0.745691 6.58066C0.243108 7.79566 -0.0149339 9.09784 -0.0136672 10.4127C-0.0124006 11.7275 0.24815 13.0292 0.753072 14.2432C1.25799 15.4573 1.99738 16.5598 2.9289 17.4877C3.85684 18.4192 4.95937 19.1586 6.1734 19.6635C7.38742 20.1685 8.6891 20.429 10.0039 20.4303C11.3188 20.4316 12.621 20.1735 13.836 19.6709C15.051 19.1683 16.1549 18.4311 17.0846 17.5014C18.0144 16.5716 18.7516 15.4677 19.2542 14.2527C19.7568 13.0377 20.0148 11.7355 20.0136 10.4207C20.0123 9.10582 19.7518 7.80414 19.2468 6.59011C18.7419 5.37609 18.0025 4.27355 17.071 3.34561ZM4.69667 5.11335C5.95023 3.86026 7.60691 3.0914 9.37315 2.94301C11.1394 2.79462 12.9011 3.27628 14.3462 4.30265L3.88687 14.762C1.80398 11.835 2.07355 7.73651 4.69667 5.11335ZM15.3032 15.72C14.0497 16.9731 12.393 17.7419 10.6268 17.8903C8.86052 18.0387 7.09877 17.5571 5.6537 16.5307L16.1132 6.07132C18.1959 8.99835 17.9264 13.0968 15.3032 15.72Z" fill="white"/>
</svg>
