<svg width="20" height="21" viewBox="0 0 20 21" fill="none" xmlns="http://www.w3.org/2000/svg">
<path d="M14.7983 11.9089C14.7594 11.8902 13.3013 11.1723 13.0422 11.079C12.9364 11.041 12.8231 11.0039 12.7026 11.0039C12.5057 11.0039 12.3403 11.1021 12.2115 11.2948C12.0658 11.5113 11.6249 12.0267 11.4887 12.1806C11.4709 12.201 11.4466 12.2252 11.4321 12.2252C11.419 12.2252 11.1934 12.1323 11.1251 12.1026C9.56098 11.4232 8.37377 9.7894 8.21098 9.51388C8.18773 9.47427 8.18676 9.45629 8.18656 9.45629C8.19228 9.43531 8.24488 9.38258 8.27202 9.35538C8.35143 9.27681 8.43747 9.17323 8.52072 9.07304C8.56014 9.02557 8.59962 8.97804 8.63838 8.93323C8.75916 8.79271 8.81293 8.68362 8.87526 8.55726L8.90793 8.49161C9.06014 8.18921 8.93013 7.93401 8.88812 7.85161C8.85364 7.78265 8.23799 6.2968 8.17254 6.1407C8.01513 5.76401 7.80715 5.58862 7.51812 5.58862C7.4913 5.58862 7.51812 5.58862 7.40565 5.59336C7.26871 5.59914 6.52293 5.69732 6.19319 5.90518C5.84351 6.12564 5.25195 6.82836 5.25195 8.06421C5.25195 9.17648 5.9578 10.2267 6.26085 10.6261C6.26838 10.6362 6.28221 10.6566 6.30228 10.686C7.46286 12.3809 8.90968 13.637 10.3764 14.2229C11.7884 14.7869 12.457 14.8521 12.8371 14.8521H12.8372C12.997 14.8521 13.1248 14.8396 13.2376 14.8285L13.3092 14.8217C13.797 14.7784 14.8689 14.223 15.1127 13.5454C15.3048 13.0117 15.3555 12.4286 15.2277 12.2169C15.1401 12.073 14.9893 12.0006 14.7983 11.9089Z" fill="white"/>
<path d="M10.1775 0.416672C4.76089 0.416672 0.354141 4.79031 0.354141 10.1662C0.354141 11.905 0.819465 13.607 1.70096 15.0966L0.0137512 20.0736C-0.0176774 20.1663 0.0056992 20.2689 0.0743356 20.3388C0.123881 20.3894 0.191089 20.4167 0.259725 20.4167C0.286024 20.4167 0.312517 20.4127 0.338362 20.4045L5.52797 18.7554C6.9481 19.5141 8.55317 19.9147 10.1776 19.9147C15.5937 19.9147 20 15.5415 20 10.1662C20 4.79031 15.5937 0.416672 10.1775 0.416672ZM10.1775 17.8838C8.64901 17.8838 7.16856 17.4425 5.89596 16.6074C5.85317 16.5793 5.80349 16.5649 5.75349 16.5649C5.72706 16.5649 5.70057 16.5689 5.67479 16.5771L3.07511 17.4034L3.91434 14.9275C3.94148 14.8474 3.92791 14.759 3.87791 14.6907C2.90882 13.3665 2.39654 11.8021 2.39654 10.1662C2.39654 5.91018 5.88706 2.44758 10.1775 2.44758C14.4673 2.44758 17.9575 5.91018 17.9575 10.1662C17.9575 14.4217 14.4675 17.8838 10.1775 17.8838Z" fill="white"/>
</svg>
